<svg width="176" height="48" viewBox="0 0 176 48" fill="none" xmlns="http://www.w3.org/2000/svg">
<path d="M143.788 33.2391C142.257 33.3281 140.742 32.8849 139.501 31.9846C138.98 31.5869 138.564 31.0693 138.287 30.476C138.01 29.8827 137.88 29.2312 137.909 28.577C137.885 27.9234 138.016 27.2735 138.293 26.6809C138.57 26.0883 138.984 25.5702 139.501 25.1694C140.781 24.3506 142.268 23.9154 143.788 23.9154C145.308 23.9154 146.796 24.3506 148.076 25.1694C148.587 25.5742 148.995 26.0936 149.269 26.6855C149.542 27.2775 149.672 27.9254 149.649 28.577C149.677 29.2291 149.548 29.8786 149.275 30.4713C149.001 31.064 148.59 31.5828 148.076 31.9846C146.834 32.8849 145.319 33.3281 143.788 33.2391ZM143.788 30.9548C144.091 30.9813 144.396 30.9432 144.683 30.8431C144.971 30.7431 145.234 30.5834 145.455 30.3744C145.664 30.1138 145.821 29.8141 145.914 29.4927C146.007 29.1713 146.035 28.8346 145.997 28.5021C146.055 27.8611 145.86 27.223 145.455 26.7234C145.234 26.5144 144.971 26.3546 144.683 26.2546C144.396 26.1546 144.091 26.1165 143.788 26.1429C143.482 26.1185 143.175 26.1575 142.885 26.2573C142.595 26.3572 142.329 26.5159 142.103 26.7234C141.706 27.2275 141.512 27.8621 141.56 28.5021C141.492 29.173 141.686 29.8442 142.103 30.3744C142.335 30.5687 142.604 30.7136 142.894 30.8005C143.183 30.8874 143.488 30.9145 143.788 30.8799V30.9548ZM161.631 27.3599L158.205 27.8468C158.144 27.3594 157.894 26.9155 157.509 26.6107C157.123 26.306 156.634 26.1649 156.145 26.2179C155.844 26.1989 155.543 26.2423 155.259 26.3454C154.976 26.4485 154.716 26.609 154.498 26.817C154.08 27.3041 153.871 27.9367 153.917 28.577C153.893 28.8941 153.932 29.2128 154.032 29.5148C154.132 29.8169 154.29 30.0962 154.498 30.3369C154.713 30.5511 154.971 30.7171 155.255 30.8236C155.539 30.9301 155.843 30.9749 156.145 30.9548C156.659 30.9867 157.168 30.8413 157.587 30.5429C157.963 30.202 158.202 29.7363 158.261 29.2323L161.631 29.7004C161.511 30.2407 161.284 30.7513 160.962 31.2016C160.64 31.652 160.231 32.0329 159.759 32.3216C158.522 32.977 157.133 33.2913 155.735 33.2321C154.336 33.1728 152.979 32.7422 151.802 31.9846C151.281 31.5869 150.865 31.0693 150.588 30.476C150.311 29.8827 150.181 29.2312 150.21 28.577C150.186 27.9234 150.318 27.2735 150.594 26.6809C150.871 26.0883 151.285 25.5702 151.802 25.1694C153.045 24.2718 154.559 23.8289 156.089 23.9149C157.396 23.8468 158.695 24.152 159.834 24.7949C160.288 25.083 160.68 25.458 160.989 25.8982C161.297 26.3384 161.515 26.8351 161.631 27.3599ZM166.836 25.9183C166.434 25.8971 166.033 25.9609 165.657 26.1055C165.376 26.2366 165.226 26.4051 165.226 26.611C165.228 26.7116 165.257 26.8098 165.309 26.8954C165.362 26.981 165.437 27.0509 165.526 27.0979C165.822 27.2247 166.14 27.2946 166.462 27.3038L168.11 27.4723C169.187 27.5132 170.239 27.8084 171.18 28.3336C171.502 28.5256 171.766 28.8009 171.944 29.1305C172.122 29.4601 172.207 29.8317 172.191 30.2059C172.192 30.6651 172.067 31.1156 171.829 31.5085C171.591 31.9014 171.25 32.2215 170.843 32.4339C169.693 33.0433 168.398 33.3281 167.099 33.2578C165.815 33.3229 164.534 33.0923 163.354 32.5838C162.943 32.3483 162.586 32.0277 162.308 31.6435C162.031 31.2593 161.838 30.8202 161.744 30.3557L164.983 30.0187C165.151 30.8612 165.863 31.2731 167.08 31.2731C167.532 31.292 167.984 31.222 168.409 31.0672C168.527 31.0301 168.631 30.9586 168.708 30.8618C168.785 30.765 168.831 30.6474 168.84 30.5242C168.841 30.4205 168.814 30.3184 168.761 30.2291C168.709 30.1399 168.632 30.0671 168.54 30.0187C168.207 29.8786 167.853 29.7963 167.492 29.7753L165.788 29.6254C164.79 29.572 163.819 29.2765 162.961 28.7642C162.657 28.5572 162.411 28.2772 162.244 27.95C162.077 27.6228 161.995 27.259 162.006 26.8919C162.009 26.4456 162.134 26.0087 162.369 25.629C162.603 25.2492 162.938 24.9412 163.335 24.7387C164.423 24.1429 165.654 23.8579 166.893 23.9149C169.926 23.9149 171.648 24.8323 172.042 26.6672L168.821 26.9855C168.54 26.274 167.922 25.9183 166.836 25.9183ZM133.135 20.8068V25.263C132.727 24.8196 132.229 24.4686 131.674 24.2332C131.083 23.9784 130.445 23.8508 129.802 23.8587C129.079 23.8462 128.361 23.9734 127.686 24.2332L124.99 29.8502C125.169 30.6486 125.587 31.3736 126.188 31.9284C127.177 32.8141 128.476 33.2719 129.802 33.2016C130.482 33.2126 131.155 33.0652 131.768 32.771C132.361 32.4975 132.881 32.0867 133.284 31.5727L133.547 33.0518H136.673V20.7694L133.135 20.8068ZM132.517 30.2995C132.042 30.6972 131.442 30.9151 130.822 30.9151C130.203 30.9151 129.603 30.6972 129.128 30.2995C128.915 30.068 128.751 29.7964 128.645 29.5006C128.539 29.2048 128.493 28.8907 128.51 28.577C128.493 28.266 128.54 27.955 128.646 27.6623C128.752 27.3696 128.916 27.1012 129.128 26.8731C129.453 26.5285 129.877 26.2918 130.341 26.1948C130.805 26.0979 131.288 26.1454 131.724 26.331C132.16 26.5165 132.529 26.8312 132.782 27.2327C133.034 27.6342 133.157 28.1033 133.135 28.577C133.158 28.8883 133.118 29.2011 133.018 29.4969C132.919 29.7927 132.761 30.0656 132.554 30.2995H132.517Z" fill="#6605FF"/>
<path d="M14.1667 19.6459H10.5157L11.7515 14.9463H15.4961C16.9378 10.097 20.1957 8 26.0935 8C27.6823 7.99969 29.2678 8.14385 30.8305 8.43066L29.3888 13.0366C28.2743 12.8039 27.1383 12.6909 25.9998 12.6996C23.4909 12.6996 22.405 13.2612 21.8433 14.9463H28.9956L27.7037 19.6459H20.5888L17.2748 32.0968C15.6271 38.1632 12.5565 39.9981 7.74465 39.9981C6.48982 40.0155 5.23611 39.9152 4 39.6985V34.6245C4.71148 34.7368 6.45277 35.1487 7.12681 35.1487C7.5454 35.2149 7.97299 35.1969 8.3845 35.0956C8.796 34.9943 9.18315 34.8119 9.52322 34.5591C9.86329 34.3062 10.1494 33.988 10.3649 33.623C10.5803 33.2581 10.7207 32.8538 10.7778 32.4338L14.1667 19.6459ZM44.5546 24.0459C44.5546 27.1914 42.8134 28.6705 38.9376 28.6705C35.0619 28.6705 33.3207 27.1914 33.3207 24.0459C33.3207 20.9003 35.0994 19.4399 38.9376 19.4399C42.7759 19.4399 44.5546 20.9191 44.5546 24.0459ZM26.7488 24.0459C26.7488 29.9811 31.2237 33.4075 38.9002 33.4075C46.5767 33.4075 51.0516 29.925 51.0516 24.0459C51.0516 18.1667 46.5767 14.6842 38.9002 14.6842C31.2237 14.6842 26.7488 18.1855 26.7488 24.0459ZM52.9613 33.1079H59.2898V24.9445C59.2898 21.7241 61.4617 19.8144 65.094 19.8144C67.7153 19.8144 69.1008 21.125 69.1008 23.559V33.1641H75.4293V22.1922C75.4293 17.3991 72.5272 14.7029 67.3221 14.7029C65.727 14.6576 64.1443 14.9963 62.7074 15.6903C61.2705 16.3843 60.0214 17.4134 59.0652 18.691L58.5971 15.0774H52.9801L52.9613 33.1079ZM95.1075 24.0459C95.1075 26.948 93.0292 28.5956 89.2096 28.5956C85.3901 28.5956 83.5927 26.9854 83.5927 24.0459C83.5927 21.1063 85.465 19.5148 89.2096 19.5148C92.9543 19.5148 95.1075 21.1625 95.1075 24.0459ZM77.0957 24.0459C77.0957 29.8501 80.8403 33.4075 87.1688 33.4075C88.7122 33.4735 90.2507 33.1913 91.6703 32.582C93.0899 31.9727 94.3542 31.0518 95.3696 29.8875L95.7628 33.0517H101.38V8.41191H95.1075V17.8671C94.0857 16.8002 92.8508 15.9604 91.483 15.4023C90.1152 14.8443 88.6453 14.5805 87.1688 14.6281C80.9527 14.6281 77.0957 18.2604 77.0957 23.9897M118.998 14.9463L114.261 26.0679L109.056 14.9463H102.072L111.022 32.2279C110.681 33.1821 110.017 33.9869 109.145 34.5032C108.273 35.0195 107.248 35.2148 106.248 35.0552C105.427 35.0566 104.607 34.994 103.795 34.8679L104.02 39.5487C105.168 39.854 106.352 40.0051 107.54 39.9981C112.183 39.9981 114.449 38.1257 117.089 32.7522L125.626 14.9463H118.998Z" fill="#23232A"/>
</svg>
